{"title":"Castle - S04E08 - 720p WEB-DL H.264 {$H@uN}","uid":6804020,"size":419677007,"categoryP":"video","categoryS":"hd___tv_shows","magnet":"?xt=urn:btih:8ca212d469fa978e410d3e5cda0ee5621f565c86&amp;dn=Castle+-+S04E08+-+720p+WEB-DL+H.264+%7B%24H%40uN%7D&amp;tr=udp%3A%2F%2Ftracker.openbittorrent.com%3A80&amp;tr=udp%3A%2F%2Fopen.demonii.com%3A1337&amp;tr=udp%3A%2F%2Ftracker.coppersurfer.tk%3A6969&amp;tr=udp%3A%2F%2Fexodus.desync.com%3A6969","seeders":0,"leechers":1,"uploader":"ShaunGP","files":-1,"time":1320788969,"description":"&quot;WEB-DL means straight from iTunes where they release &quot;Bluray&quot; quality episodes.\n Such episodes are without any Logo and Caps.&quot;\n\nCastle - S04E08 - Heartbreak Hotel - 720p WEB-DL H.264 {$H@uN}\n\nGeneral:\n\nComplete name                  : Castle - S04E08 - Heartbreak Hotel - 720p WEB-DL H.264 {$H@uN}.mkv\nOriginal air date              : November 8 2011\nGenre                          : Police procedural, Comedy-drama\nLanguage                       : English\nEncoder                        : $H@uN\nFile format                    : Matroska\nFile size                      : 400 MiB\nDuration                       : 43mn 0s\nOverall bit rate               : 1 301 Kbps\n\n\nVideo:\n\nFormat                         : AVC\nDuration                       : 43mn 0s\nBit rate                       : 1 200 Kbps\nWidth                          : 1 280 pixels\nHeight                         : 720 pixels\nDisplay aspect ratio           : 16:9\nFrame rate mode                : Variable\nFrame rate                     : 23.976 fps\nColor space                    : YUV\nChroma subsampling             : 4:2:0\nBit depth                      : 8 bits\nScan type                      : Progressive\nBits/(Pixel*Frame)             : 0.054\nStream size                    : 363 MiB (91%)\nWriting library                : x264 core 112\nLanguage                       : English\nSubtitles                      : Seperate .srt file included\n\n\nAudio:\n\nFormat                         : AC-3\nMode extension                 : CM (complete main)\nCodec ID                       : A_AC3\nDuration                       : 43mn 0s\nBit rate mode                  : Constant\nBit rate                       : 96 Kbps\nChannel(s)                     : 2 channels\nChannel positions              : Front: L R\nSampling rate                  : 48.0 KHz\nBit depth                      : 16 bits\nCompression mode               : Lossy\nStream size                    : 29.5 MiB (7%)\nLanguage                       : English\n\nScreen Shots:\n &lt;a href=&quot;\nhttp://i1140.photobucket.com/albums/n566/ShaunGP/ScreenShots2/Castle-S04E08-HeartbreakHotel-720pWEB-DLH264HuNmkv_snapshot_0547_20111109_014700.jpg&quot; rel=&quot;nofollow&quot; target=&quot;_NEW&quot;&gt;\nhttp://i1140.photobucket.com/albums/n566/ShaunGP/ScreenShots2/Castle-S04E08-HeartbreakHotel-720pWEB-DLH264HuNmkv_snapshot_0547_20111109_014700.jpg&lt;/a&gt;\n &lt;a href=&quot;\nhttp://i1140.photobucket.com/albums/n566/ShaunGP/ScreenShots2/Castle-S04E08-HeartbreakHotel-720pWEB-DLH264HuNmkv_snapshot_0254_20111109_014602.jpg&quot; rel=&quot;nofollow&quot; target=&quot;_NEW&quot;&gt;\nhttp://i1140.photobucket.com/albums/n566/ShaunGP/ScreenShots2/Castle-S04E08-HeartbreakHotel-720pWEB-DLH264HuNmkv_snapshot_0254_20111109_014602.jpg&lt;/a&gt;\n &lt;a href=&quot;\nhttp://i1140.photobucket.com/albums/n566/ShaunGP/ScreenShots2/Castle-S04E08-HeartbreakHotel-720pWEB-DLH264HuNmkv_snapshot_0035_20111109_014532.jpg&quot; rel=&quot;nofollow&quot; target=&quot;_NEW&quot;&gt;\nhttp://i1140.photobucket.com/albums/n566/ShaunGP/ScreenShots2/Castle-S04E08-HeartbreakHotel-720pWEB-DLH264HuNmkv_snapshot_0035_20111109_014532.jpg&lt;/a&gt;\n\n\nEncoder's Notes:\n\nDo Provide Feedback.\nKeep in Mind, you are charged nothing for Downloading a TORRENT,\nso its your duty to SEED n keep the torrent alive for as long as possible.\nEnjoy..!!! Keep Seeding till 1:1 ratio...","torrent":{"xt":"urn:btih:8ca212d469fa978e410d3e5cda0ee5621f565c86","amp;dn":"Castle+-+S04E08+-+720p+WEB-DL+H.264+%7B%24H%40uN%7D","amp;tr":["udp%3A%2F%2Ftracker.openbittorrent.com%3A80","udp%3A%2F%2Fopen.demonii.com%3A1337","udp%3A%2F%2Ftracker.coppersurfer.tk%3A6969","udp%3A%2F%2Fexodus.desync.com%3A6969"],"infoHash":"8ca212d469fa978e410d3e5cda0ee5621f565c86","infoHashBuffer":{"type":"Buffer","data":[140,162,18,212,105,250,151,142,65,13,62,92,218,14,229,98,31,86,92,134]},"announce":[],"urlList":[]}}